<?xml version="1.0" standalone="no"?>
<!DOCTYPE svg PUBLIC "-//W3C//DTD SVG 20010904//EN"
 "http://www.w3.org/TR/2001/REC-SVG-20010904/DTD/svg10.dtd">
<svg version="1.0" xmlns="http://www.w3.org/2000/svg"
 width="600.000000pt" height="600.000000pt" viewBox="0 0 600.000000 600.000000"
 preserveAspectRatio="xMidYMid meet">
<metadata>
Created by potrace 1.11, written by Peter Selinger 2001-2013
</metadata>
<g transform="translate(0.000000,600.000000) scale(0.100000,-0.100000)"
fill="#000000" stroke="none">
<path d="M1438 5608 c-10 -10 -19 -29 -19 -43 -1 -14 -2 -28 -3 -32 -1 -5 -6
-34 -10 -67 -4 -32 -9 -68 -11 -80 -2 -11 -6 -43 -10 -69 -4 -27 -8 -59 -11
-70 -2 -12 -6 -41 -9 -65 -2 -23 -9 -68 -14 -100 -14 -78 -19 -108 -26 -172
-4 -30 -9 -58 -11 -61 -17 -28 53 -29 1330 -29 718 0 1306 -2 1306 -4 0 -2
-60 -64 -132 -137 -143 -144 -251 -259 -363 -384 -113 -126 -120 -135 -217
-252 -61 -74 -103 -116 -123 -122 -19 -7 -272 -10 -718 -9 -759 2 -714 6 -722
-61 -4 -33 -8 -57 -25 -176 -13 -91 -19 -128 -31 -196 -13 -79 -7 -89 55 -89
28 -1 277 -1 554 0 276 0 502 -3 502 -7 -1 -5 -37 -62 -80 -128 -44 -66 -116
-184 -162 -262 -61 -107 -88 -143 -103 -144 -11 -1 -206 -2 -433 -3 -443 -1
-430 0 -433 -51 0 -11 -2 -29 -4 -40 -6 -31 -17 -107 -21 -145 -2 -19 -6 -46
-9 -60 -6 -29 -9 -46 -26 -153 -8 -51 -9 -81 -2 -88 6 -6 142 -10 357 -9 229
0 345 -3 341 -10 -25 -40 -171 -510 -200 -640 -67 -311 -122 -620 -151 -845
-3 -27 -7 -52 -9 -55 -2 -3 -6 -30 -10 -60 -3 -30 -8 -62 -10 -70 -6 -24 -18
-123 -19 -155 l-1 -30 512 0 c281 0 514 3 517 6 8 8 18 57 31 149 6 41 20 140
30 200 2 14 7 45 10 70 3 25 8 52 10 60 2 8 6 38 10 65 3 28 7 61 10 75 3 14
7 39 9 55 3 17 10 62 16 100 61 391 239 1048 291 1076 11 6 264 9 664 9 355
-1 650 2 656 5 16 10 27 47 34 112 4 32 15 114 26 183 11 69 22 141 25 160 3
19 7 40 9 46 2 6 -1 17 -6 25 -7 12 -100 14 -588 14 -319 0 -583 3 -586 7 -12
12 226 429 285 500 l28 33 433 2 c239 1 451 2 472 2 43 1 51 13 61 101 4 30
11 84 17 120 6 36 13 83 15 105 3 22 9 56 13 75 4 19 7 53 7 75 -1 35 -4 40
-31 45 -16 3 -157 5 -312 4 -156 -1 -283 1 -283 4 0 6 173 211 284 336 111
124 178 196 371 394 83 84 155 163 161 175 11 20 17 48 29 137 7 52 35 241 40
270 2 14 9 61 15 105 12 83 13 91 24 165 14 91 14 110 3 117 -7 4 -822 8
-1812 8 -1701 0 -1801 -1 -1817 -17z"/>
</g>
</svg>
